#!OML:ASF E:\motion texture\Top Level 1\Subject 1\Session 1\male.ASF
:FULLY-SPECIFIED
:DEGREES
553
root -25.0573 17.6145 3.16451 1172.25 -80.8432 -1170.74
lowerback 0.641627 -1.75246 6.87376
upperback -1.58538 -2.32064 5.74965
thorax -2.02752 -1.29994 2.15284
lowerneck -19.7933 -1.61362 -3.77574
upperneck 17.1464 -1.716 2.68986
head 8.66901 -0.780106 1.30579
rclavicle 1.61513e-015 5.96354e-014
rhumerus -21.8871 6.44738 -88.9378
rradius 58.3615
rwrist -3.96255
rhand -15.1268 -8.96591
rfingers 7.12502
rthumb 11.0424 -38.6554
lclavicle 1.61513e-015 5.96354e-014
lhumerus -31.5915 -1.34674 91.8518
lradius 32.1162
lwrist -10.0725
lhand -11.0129 14.4865
lfingers 7.12502
lthumb 15.008 43.9226
rfemur -20.4213 4.37404 34.1329
rtibia 32.5387
rfoot 711.134 -5.8057
rtoes 16.6803
lfemur -27.1742 3.72189 -5.261
ltibia 87.8831
lfoot 1102.25 -70.6638
ltoes -1.09366
554
root -25.2024 17.6551 3.15161 1173.63 -80.5358 -1172.17
lowerback 0.769629 -1.54103 7.15773
upperback -1.57867 -2.02401 5.78845
thorax -2.09756 -1.1594 2.03307
lowerneck -19.6891 -1.68078 -3.80228
upperneck 17.4023 -1.82587 2.74278
head 8.74285 -0.831239 1.3148
rclavicle -1.22501e-014 5.96354e-014
rhumerus -19.9297 7.34754 -89.0941
rradius 59.2266
rwrist -3.96198
rhand -15.1336 -9.0098
rfingers 7.12502
rthumb 11.0359 -38.6997
lclavicle -1.22501e-014 5.96354e-014
lhumerus -32.6482 -0.640718 91.5466
lradius 31.0717
lwrist -10.4284
lhand -10.9915 14.0885
lfingers 7.12502
lthumb 15.0287 43.5231
rfemur -19.3 4.50007 34.6047
rtibia 31.647
rfoot 711.05 -5.73181
rtoes 16.5974
lfemur -30.7466 4.63547 -5.22276
ltibia 88.8385
lfoot 1270.33 -81.4582
ltoes -0.923613
555
root -25.3481 17.6982 3.14061 1175.44 -80.2891 -1174.04
lowerback 0.891208 -1.29451 7.40517
upperback -1.56008 -1.68036 5.78067
thorax -2.1485 -0.993782 1.8819
lowerneck -19.6387 -1.76743 -3.82749
upperneck 17.6613 -1.971 2.83984
head 8.8292 -0.893398 1.33384
rclavicle -1.67228e-014 1.90833e-014
rhumerus -18.0112 8.14466 -89.1685
rradius 60.0685
rwrist -3.98233
rhand -15.1226 -9.04414
rfingers 7.12502
rthumb 11.0465 -38.7335
lclavicle -1.67228e-014 1.90833e-014
lhumerus -33.7777 -0.111158 91.2005
lradius 30.3684
lwrist -10.7651
lhand -10.9826 13.6808
lfingers 7.12502
lthumb 15.0373 43.1148
rfemur -18.1457 4.65196 34.9959
rtibia 30.713
rfoot 711.003 -5.61547
rtoes 16.505
lfemur -34.2725 5.59361 -5.33861
ltibia 86.5699
lfoot 1274.98 -53.5328
ltoes -0.761498
556
root -25.495 17.742 3.13139 1177.54 -80.0647 -1176.24
lowerback 1.02832 -1.02247 7.64942
upperback -1.52696 -1.30029 5.73582
thorax -2.18997 -0.809208 1.69178
lowerneck -19.613 -1.87028 -3.85841
upperneck 17.8915 -2.14518 2.98061
head 8.91209 -0.964089 1.3647
rclavicle 1.86112e-014 -6.04305e-014
rhumerus -16.1554 8.84087 -89.1731
rradius 60.897
rwrist -4.03931
rhand -15.1052 -9.03994
rfingers 7.12502
rthumb 11.0633 -38.7284
lclavicle 1.86112e-014 -6.04305e-014
lhumerus -34.987 0.224731 90.8341
lradius 29.9999
lwrist -11.0151
lhand -10.9712 13.2915
lfingers 7.12502
lthumb 15.0482 42.7246
rfemur -16.9425 4.83277 35.3444
rtibia 29.7606
rfoot 710.966 -5.4761
rtoes 16.4308
lfemur -37.7209 6.55875 -5.56149
ltibia 82.382
lfoot 1274.74 -25.3616
ltoes -0.682526
557
root -25.6428 17.7852 3.1236 1179.79 -79.8345 -1178.6
lowerback 1.19237 -0.734041 7.90889
upperback -1.47606 -0.895054 5.66609
thorax -2.22427 -0.611758 1.46569
lowerneck -19.6032 -1.98694 -3.89667
upperneck 18.0729 -2.34222 3.15552
head 8.98293 -1.04142 1.40516
rclavicle -9.24349e-015 -4.53229e-014
rhumerus -14.3545 9.46207 -89.1091
rradius 61.7067
rwrist -4.16216
rhand -15.0844 -9.03608
rfingers 7.12502
rthumb 11.0834 -38.7234
lclavicle -9.24349e-015 -4.53229e-014
lhumerus -36.2649 0.36544 90.4701
lradius 29.9499
lwrist -11.0966
lhand -10.8934 12.9706
lfingers 7.12502
lthumb 15.1232 42.3981
rfemur -15.6957 5.04572 35.6789
rtibia 28.8146
rfoot 710.929 -5.33946
rtoes 16.3839
lfemur -41.084 7.49719 -5.85113
ltibia 78.5631
lfoot 1274.13 2.93775
ltoes -0.347614
558
root -25.7918 17.827 3.11716 1182.03 -79.589 -1181
lowerback 1.39496 -0.439103 8.18847
upperback -1.41264 -0.475915 5.57956
thorax -2.26257 -0.407578 1.20975
lowerneck -19.5927 -2.11461 -3.9536
upperneck 18.1952 -2.55582 3.36782
head 9.03531 -1.12305 1.45907
rclavicle 3.18055e-015 -9.54166e-015
rhumerus -12.6265 10.0096 -88.9817
rradius 62.5084
rwrist -4.34518
rhand -15.0533 -9.01301
rfingers 7.12502
rthumb 11.1134 -38.6987
lclavicle 3.18055e-015 -9.54166e-015
lhumerus -37.6056 0.321142 90.1263
lradius 30.18
lwrist -10.9187
lhand -10.7657 12.6864
lfingers 7.12502
lthumb 15.2462 42.1046
rfemur -14.4142 5.28297 36.0092
rtibia 27.8935
rfoot 710.888 -5.2195
rtoes 16.3349
lfemur -44.3553 8.3808 -6.19062
ltibia 75.8569
lfoot 1273.57 4.26613
ltoes 0.0959478
559
root -25.9424 17.8669 3.11217 1184.19 -79.3233 -1183.36
lowerback 1.62796 -0.14298 8.49132
upperback -1.33759 -0.0508245 5.48277
thorax -2.30045 -0.200692 0.928817
lowerneck -19.5632 -2.25028 -4.0234
upperneck 18.2538 -2.77873 3.59475
head 9.06387 -1.20805 1.51869
rclavicle 2.73329e-016 3.18055e-015
rhumerus -10.9674 10.4995 -88.7892
rradius 63.2909
rwrist -4.57795
rhand -14.9979 -8.96794
rfingers 7.12502
rthumb 11.1668 -38.6508
lclavicle 2.73329e-016 3.18055e-015
lhumerus -38.9938 0.119672 89.8091
lradius 30.6446
lwrist -10.449
lhand -10.5463 12.4442
lfingers 7.12502
lthumb 15.4575 41.8461
rfemur -13.1047 5.53785 36.3399
rtibia 27.0089
rfoot 710.839 -5.12308
rtoes 16.3206
lfemur -47.524 9.19313 -6.56625
ltibia 73.4115
lfoot 1273.09 5.15688
ltoes 0.675961
560
root -26.0939 17.9044 3.10806 1186.18 -79.0498 -1185.56
lowerback 1.88406 0.146504 8.79696
upperback -1.25936 0.369359 5.3826
thorax -2.34244 0.00354471 0.641488
lowerneck -19.526 -2.39243 -4.1137
upperneck 18.2624 -3.00554 3.8334
head 9.07529 -1.29485 1.58502
rclavicle 4.11236e-015 -4.77083e-015
rhumerus -9.3758 10.9409 -88.5305
rradius 64.0597
rwrist -4.85271
rhand -14.9302 -8.92881
rfingers 7.12502
rthumb 11.2321 -38.6081
lclavicle 4.11236e-015 -4.77083e-015
lhumerus -40.4092 -0.198983 89.5177
lradius 31.2968
lwrist -9.70366
lhand -10.2119 12.2465
lfingers 7.12502
lthumb 15.7796 41.6233
rfemur -11.8068 5.79765 36.6629
rtibia 26.1795
rfoot 710.787 -5.05783
rtoes 16.3077
lfemur -50.6163 9.91216 -6.97783
ltibia 71.2104
lfoot 1272.61 5.76304
ltoes 1.31459
561
root -26.2468 17.9393 3.10496 1188.03 -78.7752 -1187.63
lowerback 2.15152 0.429634 9.10092
upperback -1.18709 0.7844 5.27746
thorax -2.39143 0.204807 0.348426
lowerneck -19.4611 -2.53716 -4.20595
upperneck 18.2265 -3.23185 4.05974
head 9.067 -1.38324 1.64746
rclavicle -2.42269e-015 5.88403e-014
rhumerus -7.86414 11.3295 -88.214
rradius 64.8126
rwrist -5.1371
rhand -14.8256 -8.89072
rfingers 7.12502
rthumb 11.3329 -38.5645
lclavicle -2.42269e-015 5.88403e-014
lhumerus -41.8534 -0.604677 89.2439
lradius 32.0974
lwrist -8.71747
lhand -9.81831 12.0651
lfingers 7.12502
lthumb 16.1586 41.4116
rfemur -10.5346 6.05797 36.9681
rtibia 25.4118
rfoot 710.731 -5.01884
rtoes 16.2889
lfemur -53.6338 10.5379 -7.42379
ltibia 69.2477
lfoot 1272.13 6.14782
ltoes 1.89797
562
root -26.4007 17.9713 3.10251 1189.71 -78.5109 -1189.52
lowerback 2.39425 0.70627 9.38617
upperback -1.11684 1.18832 5.17095
thorax -2.42367 0.401292 0.0631794
lowerneck -19.3645 -2.68571 -4.30179
upperneck 18.145 -3.45823 4.27163
head 9.03798 -1.47403 1.70552
rclavicle -1.55301e-015 9.54166e-015
rhumerus -6.41141 11.6643 -87.8362
rradius 65.5377
rwrist -5.40965
rhand -14.7029 -8.856
rfingers 7.12502
rthumb 11.4513 -38.5233
lclavicle -1.55301e-015 9.54166e-015
lhumerus -43.2885 -1.05779 88.9758
lradius 32.9928
lwrist -7.612
lhand -9.35061 11.9156
lfingers 7.12502
lthumb 16.6089 41.2249
rfemur -9.31058 6.31087 37.248
rtibia 24.7038
rfoot 710.672 -5.00301
rtoes 16.2724
lfemur -56.6149 11.0604 -7.90516
ltibia 67.488
lfoot 1271.65 6.36489
ltoes 2.62332
563
root -26.5554 18.0004 3.1005 1191.15 -78.2763 -1191.15
lowerback 2.61852 0.964407 9.64515
upperback -1.05727 1.5665 5.06062
thorax -2.45357 0.585332 -0.211669
lowerneck -19.2854 -2.83217 -4.40231
upperneck 18.0617 -3.67621 4.47058
head 9.01166 -1.56255 1.76093
rclavicle 5.92627e-015 5.80451e-014
rhumerus -5.00468 11.9609 -87.4077
rradius 66.2217
rwrist -5.65766
rhand -14.5808 -8.82696
rfingers 7.12502
rthumb 11.569 -38.4876
lclavicle 5.92627e-015 5.80451e-014
lhumerus -44.7141 -1.52259 88.6973
lradius 33.9508
lwrist -6.46987
lhand -8.8768 11.772
lfingers 7.12502
lthumb 17.065 41.0425
rfemur -8.15638 6.53019 37.487
rtibia 24.0616
rfoot 710.605 -5.00583
rtoes 16.2311
lfemur -59.5597 11.4536 -8.41906
ltibia 65.9349
lfoot 1271.17 6.46717
ltoes 3.04182
